<svg xmlns="http://www.w3.org/2000/svg" width="32" height="32" viewBox="0 0 32 32">
  <!-- Pixel hand pointer - index finger pointing up -->
  <!-- Finger -->
  <rect x="10" y="0" width="4" height="4" fill="#000"/>
  <rect x="14" y="0" width="4" height="4" fill="#000"/>
  <rect x="10" y="4" width="4" height="4" fill="#000"/>
  <rect x="14" y="4" width="4" height="4" fill="#ffcc99"/>
  <rect x="18" y="4" width="4" height="4" fill="#000"/>
  <rect x="10" y="8" width="4" height="4" fill="#000"/>
  <rect x="14" y="8" width="4" height="4" fill="#ffcc99"/>
  <rect x="18" y="8" width="4" height="4" fill="#000"/>
  <rect x="10" y="12" width="4" height="4" fill="#000"/>
  <rect x="14" y="12" width="4" height="4" fill="#ffcc99"/>
  <rect x="18" y="12" width="4" height="4" fill="#000"/>
  <!-- Palm -->
  <rect x="2" y="16" width="4" height="4" fill="#000"/>
  <rect x="6" y="16" width="4" height="4" fill="#000"/>
  <rect x="10" y="16" width="4" height="4" fill="#000"/>
  <rect x="14" y="16" width="4" height="4" fill="#ffcc99"/>
  <rect x="18" y="16" width="4" height="4" fill="#000"/>
  <rect x="2" y="20" width="4" height="4" fill="#000"/>
  <rect x="6" y="20" width="4" height="4" fill="#ffcc99"/>
  <rect x="10" y="20" width="4" height="4" fill="#ffcc99"/>
  <rect x="14" y="20" width="4" height="4" fill="#ffcc99"/>
  <rect x="18" y="20" width="4" height="4" fill="#ffcc99"/>
  <rect x="22" y="20" width="4" height="4" fill="#000"/>
  <rect x="2" y="24" width="4" height="4" fill="#000"/>
  <rect x="6" y="24" width="4" height="4" fill="#ffcc99"/>
  <rect x="10" y="24" width="4" height="4" fill="#ffcc99"/>
  <rect x="14" y="24" width="4" height="4" fill="#ffcc99"/>
  <rect x="18" y="24" width="4" height="4" fill="#ffcc99"/>
  <rect x="22" y="24" width="4" height="4" fill="#000"/>
  <rect x="6" y="28" width="4" height="4" fill="#000"/>
  <rect x="10" y="28" width="4" height="4" fill="#000"/>
  <rect x="14" y="28" width="4" height="4" fill="#000"/>
  <rect x="18" y="28" width="4" height="4" fill="#000"/>
</svg>
